<?xml version="1.0" encoding="UTF-8" standalone="no"?>
<!DOCTYPE svg PUBLIC "-//W3C//DTD SVG 1.1//EN" "http://www.w3.org/Graphics/SVG/1.1/DTD/svg11.dtd">
<svg width="100%" height="100%" viewBox="0 0 3000 3000" version="1.1" xmlns="http://www.w3.org/2000/svg" xmlns:xlink="http://www.w3.org/1999/xlink" xml:space="preserve" xmlns:serif="http://www.serif.com/" style="fill-rule:evenodd;clip-rule:evenodd;stroke-linejoin:round;stroke-miterlimit:2;">
    <g transform="matrix(0.24,0,0,0.24,1500,1500)">
        <g id="Layer5">
            <g transform="matrix(1,0,0,1,-6250,-6250)">
                <clipPath id="_clip1">
                    <rect x="0" y="0" width="12500" height="12500"/>
                </clipPath>
                <g clip-path="url(#_clip1)">
                    <g id="Layer4" transform="matrix(12.5,0,0,12.5,-12500,-15625)">
                        <g transform="matrix(1,0,0,1.333333,0,-416.666667)">
                            <rect x="1000" y="1250" width="250" height="750" style="fill:rgb(9,9,11);"/>
                        </g>
                        <g transform="matrix(0.965926,-0.258819,0.267949,1,88.411452,573.523806)">
                            <rect x="1000" y="1250" width="250" height="750" style="fill:rgb(9,9,11);"/>
                        </g>
                        <g transform="matrix(-0.706524,-0.706524,0.372692,-0.372692,1667.29,2876.513158)">
                            <rect x="1000" y="1250" width="250" height="750" style="fill:rgb(9,9,11);"/>
                        </g>
                        <g transform="matrix(0,-1,0.666667,0,696.728301,2500)">
                            <rect x="1000" y="1250" width="250" height="750" style="fill:rgb(9,9,11);"/>
                        </g>
                        <g transform="matrix(0,-1,0.666667,0,696.728301,3000)">
                            <rect x="1000" y="1250" width="250" height="750" style="fill:rgb(9,9,11);"/>
                        </g>
                    </g>
                </g>
            </g>
        </g>
    </g>
</svg>
